<mxfile host="app.diagrams.net" agent="Mozilla/5.0 (Windows NT 10.0; Win64; x64) AppleWebKit/537.36 (KHTML, like Gecko) Chrome/132.0.0.0 YaBrowser/25.2.0.0 Safari/537.36" version="26.1.0">
  <diagram name="Страница — 1" id="2l2xRksPNdQvng3e8ofO">
    <mxGraphModel dx="1050" dy="663" grid="1" gridSize="10" guides="1" tooltips="1" connect="1" arrows="1" fold="1" page="1" pageScale="1" pageWidth="827" pageHeight="1169" math="0" shadow="0">
      <root>
        <mxCell id="0" />
        <mxCell id="1" parent="0" />
        <mxCell id="bLb5BtMO9tZuomgXs2TO-29" value="" style="rounded=0;whiteSpace=wrap;html=1;movable=1;resizable=1;rotatable=1;deletable=1;editable=1;locked=0;connectable=1;" parent="1" vertex="1">
          <mxGeometry x="200" y="210" width="420" height="590" as="geometry" />
        </mxCell>
        <mxCell id="bLb5BtMO9tZuomgXs2TO-2" value="Клиент" style="shape=umlActor;verticalLabelPosition=bottom;verticalAlign=top;html=1;outlineConnect=0;" parent="1" vertex="1">
          <mxGeometry x="130" y="300" width="30" height="60" as="geometry" />
        </mxCell>
        <mxCell id="bLb5BtMO9tZuomgXs2TO-3" value="Парикмахер" style="shape=umlActor;verticalLabelPosition=bottom;verticalAlign=top;html=1;outlineConnect=0;" parent="1" vertex="1">
          <mxGeometry x="130" y="715" width="30" height="60" as="geometry" />
        </mxCell>
        <mxCell id="bLb5BtMO9tZuomgXs2TO-4" value="Администратор" style="shape=umlActor;verticalLabelPosition=bottom;verticalAlign=top;html=1;outlineConnect=0;" parent="1" vertex="1">
          <mxGeometry x="130" y="530" width="30" height="60" as="geometry" />
        </mxCell>
        <mxCell id="bLb5BtMO9tZuomgXs2TO-8" value="&lt;p data-pm-slice=&quot;1 1 [&amp;quot;ordered_list&amp;quot;,{&amp;quot;spread&amp;quot;:false,&amp;quot;startingNumber&amp;quot;:1,&amp;quot;start&amp;quot;:150,&amp;quot;end&amp;quot;:277},&amp;quot;regular_list_item&amp;quot;,{&amp;quot;start&amp;quot;:150,&amp;quot;end&amp;quot;:172}]&quot;&gt;Регистрация&lt;/p&gt;" style="ellipse;whiteSpace=wrap;html=1;" parent="1" vertex="1">
          <mxGeometry x="310" y="270" width="120" height="50" as="geometry" />
        </mxCell>
        <mxCell id="bLb5BtMO9tZuomgXs2TO-9" value="&lt;p data-pm-slice=&quot;1 1 [&amp;quot;ordered_list&amp;quot;,{&amp;quot;spread&amp;quot;:false,&amp;quot;startingNumber&amp;quot;:1,&amp;quot;start&amp;quot;:150,&amp;quot;end&amp;quot;:277},&amp;quot;regular_list_item&amp;quot;,{&amp;quot;start&amp;quot;:173,&amp;quot;end&amp;quot;:193}]&quot;&gt;Запись на стрижку&lt;/p&gt;" style="ellipse;whiteSpace=wrap;html=1;" parent="1" vertex="1">
          <mxGeometry x="270" y="330" width="130" height="50" as="geometry" />
        </mxCell>
        <mxCell id="bLb5BtMO9tZuomgXs2TO-10" value="&lt;p data-pm-slice=&quot;1 1 [&amp;quot;list&amp;quot;,{&amp;quot;spread&amp;quot;:true,&amp;quot;start&amp;quot;:88,&amp;quot;end&amp;quot;:600},&amp;quot;regular_list_item&amp;quot;,{&amp;quot;start&amp;quot;:256,&amp;quot;end&amp;quot;:490},&amp;quot;list&amp;quot;,{&amp;quot;spread&amp;quot;:false,&amp;quot;start&amp;quot;:278,&amp;quot;end&amp;quot;:490},&amp;quot;regular_list_item&amp;quot;,{&amp;quot;start&amp;quot;:424,&amp;quot;end&amp;quot;:442}]&quot;&gt;Применение скидки&lt;/p&gt;" style="ellipse;whiteSpace=wrap;html=1;" parent="1" vertex="1">
          <mxGeometry x="315" y="590" width="130" height="50" as="geometry" />
        </mxCell>
        <mxCell id="bLb5BtMO9tZuomgXs2TO-11" value="&lt;p data-pm-slice=&quot;1 1 [&amp;quot;list&amp;quot;,{&amp;quot;spread&amp;quot;:true,&amp;quot;start&amp;quot;:88,&amp;quot;end&amp;quot;:600},&amp;quot;regular_list_item&amp;quot;,{&amp;quot;start&amp;quot;:256,&amp;quot;end&amp;quot;:490},&amp;quot;list&amp;quot;,{&amp;quot;spread&amp;quot;:false,&amp;quot;start&amp;quot;:278,&amp;quot;end&amp;quot;:490},&amp;quot;regular_list_item&amp;quot;,{&amp;quot;start&amp;quot;:346,&amp;quot;end&amp;quot;:421}]&quot;&gt;Управление записями на стрижку&lt;/p&gt;" style="ellipse;whiteSpace=wrap;html=1;" parent="1" vertex="1">
          <mxGeometry x="300" y="520" width="140" height="65" as="geometry" />
        </mxCell>
        <mxCell id="bLb5BtMO9tZuomgXs2TO-13" value="&lt;p data-pm-slice=&quot;1 1 [&amp;quot;ordered_list&amp;quot;,{&amp;quot;spread&amp;quot;:false,&amp;quot;startingNumber&amp;quot;:1,&amp;quot;start&amp;quot;:150,&amp;quot;end&amp;quot;:277},&amp;quot;regular_list_item&amp;quot;,{&amp;quot;start&amp;quot;:254,&amp;quot;end&amp;quot;:277}]&quot;&gt;Формирование отчётов&lt;/p&gt;" style="ellipse;whiteSpace=wrap;html=1;" parent="1" vertex="1">
          <mxGeometry x="210" y="460" width="110" height="60" as="geometry" />
        </mxCell>
        <mxCell id="bLb5BtMO9tZuomgXs2TO-14" value="" style="endArrow=classicThin;html=1;rounded=0;endFill=1;" parent="1" source="bLb5BtMO9tZuomgXs2TO-2" target="bLb5BtMO9tZuomgXs2TO-8" edge="1">
          <mxGeometry width="50" height="50" relative="1" as="geometry">
            <mxPoint x="480" y="590" as="sourcePoint" />
            <mxPoint x="530" y="540" as="targetPoint" />
          </mxGeometry>
        </mxCell>
        <mxCell id="bLb5BtMO9tZuomgXs2TO-15" value="" style="endArrow=classicThin;html=1;rounded=0;endFill=1;" parent="1" source="bLb5BtMO9tZuomgXs2TO-2" target="bLb5BtMO9tZuomgXs2TO-9" edge="1">
          <mxGeometry width="50" height="50" relative="1" as="geometry">
            <mxPoint x="170" y="367" as="sourcePoint" />
            <mxPoint x="274" y="350" as="targetPoint" />
          </mxGeometry>
        </mxCell>
        <mxCell id="bLb5BtMO9tZuomgXs2TO-17" value="&lt;p data-pm-slice=&quot;1 1 [&amp;quot;ordered_list&amp;quot;,{&amp;quot;spread&amp;quot;:false,&amp;quot;startingNumber&amp;quot;:1,&amp;quot;start&amp;quot;:150,&amp;quot;end&amp;quot;:277},&amp;quot;regular_list_item&amp;quot;,{&amp;quot;start&amp;quot;:150,&amp;quot;end&amp;quot;:172}]&quot;&gt;Авторизация&lt;/p&gt;" style="ellipse;whiteSpace=wrap;html=1;" parent="1" vertex="1">
          <mxGeometry x="240" y="220" width="120" height="50" as="geometry" />
        </mxCell>
        <mxCell id="bLb5BtMO9tZuomgXs2TO-18" value="" style="endArrow=classicThin;html=1;rounded=0;endFill=1;" parent="1" source="bLb5BtMO9tZuomgXs2TO-2" target="bLb5BtMO9tZuomgXs2TO-17" edge="1">
          <mxGeometry width="50" height="50" relative="1" as="geometry">
            <mxPoint x="170" y="367" as="sourcePoint" />
            <mxPoint x="274" y="350" as="targetPoint" />
          </mxGeometry>
        </mxCell>
        <mxCell id="bLb5BtMO9tZuomgXs2TO-19" value="&lt;p data-pm-slice=&quot;1 1 [&amp;quot;list&amp;quot;,{&amp;quot;spread&amp;quot;:true,&amp;quot;start&amp;quot;:88,&amp;quot;end&amp;quot;:600},&amp;quot;regular_list_item&amp;quot;,{&amp;quot;start&amp;quot;:88,&amp;quot;end&amp;quot;:254},&amp;quot;list&amp;quot;,{&amp;quot;spread&amp;quot;:false,&amp;quot;start&amp;quot;:103,&amp;quot;end&amp;quot;:254},&amp;quot;regular_list_item&amp;quot;,{&amp;quot;start&amp;quot;:103,&amp;quot;end&amp;quot;:172}]&quot;&gt;проверка доступности парикмахера&lt;/p&gt;" style="ellipse;whiteSpace=wrap;html=1;" parent="1" vertex="1">
          <mxGeometry x="454" y="325" width="114" height="60" as="geometry" />
        </mxCell>
        <mxCell id="bLb5BtMO9tZuomgXs2TO-20" value="" style="endArrow=classicThin;html=1;rounded=0;endFill=1;dashed=1;" parent="1" source="bLb5BtMO9tZuomgXs2TO-19" target="bLb5BtMO9tZuomgXs2TO-9" edge="1">
          <mxGeometry width="50" height="50" relative="1" as="geometry">
            <mxPoint x="404" y="329.66" as="sourcePoint" />
            <mxPoint x="504" y="329.66" as="targetPoint" />
          </mxGeometry>
        </mxCell>
        <mxCell id="bLb5BtMO9tZuomgXs2TO-21" value="include" style="edgeLabel;html=1;align=center;verticalAlign=middle;resizable=0;points=[];" parent="bLb5BtMO9tZuomgXs2TO-20" vertex="1" connectable="0">
          <mxGeometry x="-0.0065" y="-1" relative="1" as="geometry">
            <mxPoint y="-9" as="offset" />
          </mxGeometry>
        </mxCell>
        <mxCell id="bLb5BtMO9tZuomgXs2TO-23" value="&lt;p data-pm-slice=&quot;1 1 [&amp;quot;list&amp;quot;,{&amp;quot;spread&amp;quot;:true,&amp;quot;start&amp;quot;:88,&amp;quot;end&amp;quot;:600},&amp;quot;regular_list_item&amp;quot;,{&amp;quot;start&amp;quot;:88,&amp;quot;end&amp;quot;:254},&amp;quot;list&amp;quot;,{&amp;quot;spread&amp;quot;:false,&amp;quot;start&amp;quot;:103,&amp;quot;end&amp;quot;:254},&amp;quot;regular_list_item&amp;quot;,{&amp;quot;start&amp;quot;:196,&amp;quot;end&amp;quot;:254}]&quot;&gt;Оплата услуги&lt;/p&gt;" style="ellipse;whiteSpace=wrap;html=1;" parent="1" vertex="1">
          <mxGeometry x="220" y="390" width="90" height="50" as="geometry" />
        </mxCell>
        <mxCell id="bLb5BtMO9tZuomgXs2TO-24" value="" style="endArrow=classicThin;html=1;rounded=0;endFill=1;" parent="1" source="bLb5BtMO9tZuomgXs2TO-2" target="bLb5BtMO9tZuomgXs2TO-23" edge="1">
          <mxGeometry width="50" height="50" relative="1" as="geometry">
            <mxPoint x="170" y="342" as="sourcePoint" />
            <mxPoint x="283" y="360" as="targetPoint" />
          </mxGeometry>
        </mxCell>
        <mxCell id="bLb5BtMO9tZuomgXs2TO-25" value="&lt;p data-pm-slice=&quot;1 1 [&amp;quot;list&amp;quot;,{&amp;quot;spread&amp;quot;:true,&amp;quot;start&amp;quot;:88,&amp;quot;end&amp;quot;:600},&amp;quot;regular_list_item&amp;quot;,{&amp;quot;start&amp;quot;:88,&amp;quot;end&amp;quot;:254},&amp;quot;list&amp;quot;,{&amp;quot;spread&amp;quot;:false,&amp;quot;start&amp;quot;:103,&amp;quot;end&amp;quot;:254},&amp;quot;regular_list_item&amp;quot;,{&amp;quot;start&amp;quot;:196,&amp;quot;end&amp;quot;:254}]&quot;&gt;проверка применяемой скидки&lt;/p&gt;" style="ellipse;whiteSpace=wrap;html=1;" parent="1" vertex="1">
          <mxGeometry x="360" y="385" width="114" height="60" as="geometry" />
        </mxCell>
        <mxCell id="bLb5BtMO9tZuomgXs2TO-30" value="&lt;p data-pm-slice=&quot;1 1 [&amp;quot;list&amp;quot;,{&amp;quot;spread&amp;quot;:true,&amp;quot;start&amp;quot;:88,&amp;quot;end&amp;quot;:600},&amp;quot;regular_list_item&amp;quot;,{&amp;quot;start&amp;quot;:256,&amp;quot;end&amp;quot;:490},&amp;quot;list&amp;quot;,{&amp;quot;spread&amp;quot;:false,&amp;quot;start&amp;quot;:278,&amp;quot;end&amp;quot;:490},&amp;quot;regular_list_item&amp;quot;,{&amp;quot;start&amp;quot;:278,&amp;quot;end&amp;quot;:343}]&quot;&gt;Регистрация клиентов&lt;/p&gt;" style="ellipse;whiteSpace=wrap;html=1;" parent="1" vertex="1">
          <mxGeometry x="220" y="635" width="130" height="50" as="geometry" />
        </mxCell>
        <mxCell id="bLb5BtMO9tZuomgXs2TO-31" value="" style="endArrow=classicThin;html=1;rounded=0;endFill=1;" parent="1" source="bLb5BtMO9tZuomgXs2TO-4" target="bLb5BtMO9tZuomgXs2TO-13" edge="1">
          <mxGeometry width="50" height="50" relative="1" as="geometry">
            <mxPoint x="170" y="351" as="sourcePoint" />
            <mxPoint x="247" y="405" as="targetPoint" />
          </mxGeometry>
        </mxCell>
        <mxCell id="bLb5BtMO9tZuomgXs2TO-32" value="" style="endArrow=classicThin;html=1;rounded=0;endFill=1;" parent="1" source="bLb5BtMO9tZuomgXs2TO-4" target="bLb5BtMO9tZuomgXs2TO-11" edge="1">
          <mxGeometry width="50" height="50" relative="1" as="geometry">
            <mxPoint x="170" y="561" as="sourcePoint" />
            <mxPoint x="237" y="522" as="targetPoint" />
          </mxGeometry>
        </mxCell>
        <mxCell id="bLb5BtMO9tZuomgXs2TO-33" value="" style="endArrow=classicThin;html=1;rounded=0;endFill=1;" parent="1" source="bLb5BtMO9tZuomgXs2TO-4" target="bLb5BtMO9tZuomgXs2TO-10" edge="1">
          <mxGeometry width="50" height="50" relative="1" as="geometry">
            <mxPoint x="180" y="571" as="sourcePoint" />
            <mxPoint x="247" y="532" as="targetPoint" />
          </mxGeometry>
        </mxCell>
        <mxCell id="bLb5BtMO9tZuomgXs2TO-34" value="" style="endArrow=classicThin;html=1;rounded=0;endFill=1;" parent="1" source="bLb5BtMO9tZuomgXs2TO-4" target="bLb5BtMO9tZuomgXs2TO-30" edge="1">
          <mxGeometry width="50" height="50" relative="1" as="geometry">
            <mxPoint x="190" y="581" as="sourcePoint" />
            <mxPoint x="257" y="542" as="targetPoint" />
          </mxGeometry>
        </mxCell>
        <mxCell id="bLb5BtMO9tZuomgXs2TO-35" value="&lt;p data-pm-slice=&quot;1 1 [&amp;quot;list&amp;quot;,{&amp;quot;spread&amp;quot;:true,&amp;quot;start&amp;quot;:88,&amp;quot;end&amp;quot;:600},&amp;quot;regular_list_item&amp;quot;,{&amp;quot;start&amp;quot;:256,&amp;quot;end&amp;quot;:490},&amp;quot;list&amp;quot;,{&amp;quot;spread&amp;quot;:false,&amp;quot;start&amp;quot;:278,&amp;quot;end&amp;quot;:490},&amp;quot;regular_list_item&amp;quot;,{&amp;quot;start&amp;quot;:278,&amp;quot;end&amp;quot;:343}]&quot;&gt;проверка существования клиента&lt;/p&gt;" style="ellipse;whiteSpace=wrap;html=1;" parent="1" vertex="1">
          <mxGeometry x="420" y="627.5" width="120" height="65" as="geometry" />
        </mxCell>
        <mxCell id="bLb5BtMO9tZuomgXs2TO-37" value="" style="endArrow=classicThin;html=1;rounded=0;endFill=1;dashed=1;" parent="1" source="bLb5BtMO9tZuomgXs2TO-35" target="bLb5BtMO9tZuomgXs2TO-30" edge="1">
          <mxGeometry width="50" height="50" relative="1" as="geometry">
            <mxPoint x="430" y="677.5" as="sourcePoint" />
            <mxPoint x="380" y="677.5" as="targetPoint" />
          </mxGeometry>
        </mxCell>
        <mxCell id="bLb5BtMO9tZuomgXs2TO-38" value="include" style="edgeLabel;html=1;align=center;verticalAlign=middle;resizable=0;points=[];" parent="bLb5BtMO9tZuomgXs2TO-37" vertex="1" connectable="0">
          <mxGeometry x="-0.0065" y="-1" relative="1" as="geometry">
            <mxPoint x="5" y="16" as="offset" />
          </mxGeometry>
        </mxCell>
        <mxCell id="bLb5BtMO9tZuomgXs2TO-39" value="" style="endArrow=classicThin;html=1;rounded=0;endFill=1;dashed=1;" parent="1" source="bLb5BtMO9tZuomgXs2TO-25" target="bLb5BtMO9tZuomgXs2TO-23" edge="1">
          <mxGeometry width="50" height="50" relative="1" as="geometry">
            <mxPoint x="380" y="435" as="sourcePoint" />
            <mxPoint x="330" y="435" as="targetPoint" />
          </mxGeometry>
        </mxCell>
        <mxCell id="bLb5BtMO9tZuomgXs2TO-40" value="include" style="edgeLabel;html=1;align=center;verticalAlign=middle;resizable=0;points=[];" parent="bLb5BtMO9tZuomgXs2TO-39" vertex="1" connectable="0">
          <mxGeometry x="-0.0065" y="-1" relative="1" as="geometry">
            <mxPoint y="-10" as="offset" />
          </mxGeometry>
        </mxCell>
        <mxCell id="bLb5BtMO9tZuomgXs2TO-41" value="&lt;p data-pm-slice=&quot;1 1 [&amp;quot;list&amp;quot;,{&amp;quot;spread&amp;quot;:true,&amp;quot;start&amp;quot;:88,&amp;quot;end&amp;quot;:600},&amp;quot;regular_list_item&amp;quot;,{&amp;quot;start&amp;quot;:256,&amp;quot;end&amp;quot;:490},&amp;quot;list&amp;quot;,{&amp;quot;spread&amp;quot;:false,&amp;quot;start&amp;quot;:278,&amp;quot;end&amp;quot;:490},&amp;quot;regular_list_item&amp;quot;,{&amp;quot;start&amp;quot;:346,&amp;quot;end&amp;quot;:421}]&quot;&gt;проверка доступности парикмахера&lt;/p&gt;" style="ellipse;whiteSpace=wrap;html=1;" parent="1" vertex="1">
          <mxGeometry x="490" y="520" width="120" height="65" as="geometry" />
        </mxCell>
        <mxCell id="bLb5BtMO9tZuomgXs2TO-42" value="" style="endArrow=classicThin;html=1;rounded=0;endFill=1;dashed=1;" parent="1" source="bLb5BtMO9tZuomgXs2TO-41" target="bLb5BtMO9tZuomgXs2TO-11" edge="1">
          <mxGeometry width="50" height="50" relative="1" as="geometry">
            <mxPoint x="440" y="655" as="sourcePoint" />
            <mxPoint x="370" y="655" as="targetPoint" />
          </mxGeometry>
        </mxCell>
        <mxCell id="bLb5BtMO9tZuomgXs2TO-43" value="include" style="edgeLabel;html=1;align=center;verticalAlign=middle;resizable=0;points=[];" parent="bLb5BtMO9tZuomgXs2TO-42" vertex="1" connectable="0">
          <mxGeometry x="-0.0065" y="-1" relative="1" as="geometry">
            <mxPoint x="5" y="16" as="offset" />
          </mxGeometry>
        </mxCell>
        <mxCell id="bLb5BtMO9tZuomgXs2TO-44" value="&lt;p data-pm-slice=&quot;1 1 [&amp;quot;list&amp;quot;,{&amp;quot;spread&amp;quot;:true,&amp;quot;start&amp;quot;:88,&amp;quot;end&amp;quot;:600},&amp;quot;regular_list_item&amp;quot;,{&amp;quot;start&amp;quot;:256,&amp;quot;end&amp;quot;:490},&amp;quot;list&amp;quot;,{&amp;quot;spread&amp;quot;:false,&amp;quot;start&amp;quot;:278,&amp;quot;end&amp;quot;:490},&amp;quot;regular_list_item&amp;quot;,{&amp;quot;start&amp;quot;:445,&amp;quot;end&amp;quot;:490}]&quot;&gt;сбор статистики&lt;/p&gt;" style="ellipse;whiteSpace=wrap;html=1;" parent="1" vertex="1">
          <mxGeometry x="370" y="465" width="130" height="50" as="geometry" />
        </mxCell>
        <mxCell id="bLb5BtMO9tZuomgXs2TO-45" value="" style="endArrow=classicThin;html=1;rounded=0;endFill=1;dashed=1;" parent="1" source="bLb5BtMO9tZuomgXs2TO-44" target="bLb5BtMO9tZuomgXs2TO-13" edge="1">
          <mxGeometry width="50" height="50" relative="1" as="geometry">
            <mxPoint x="500" y="563" as="sourcePoint" />
            <mxPoint x="450" y="563" as="targetPoint" />
          </mxGeometry>
        </mxCell>
        <mxCell id="bLb5BtMO9tZuomgXs2TO-46" value="include" style="edgeLabel;html=1;align=center;verticalAlign=middle;resizable=0;points=[];" parent="bLb5BtMO9tZuomgXs2TO-45" vertex="1" connectable="0">
          <mxGeometry x="-0.0065" y="-1" relative="1" as="geometry">
            <mxPoint x="5" y="16" as="offset" />
          </mxGeometry>
        </mxCell>
        <mxCell id="bLb5BtMO9tZuomgXs2TO-47" value="&lt;p data-pm-slice=&quot;1 1 [&amp;quot;list&amp;quot;,{&amp;quot;spread&amp;quot;:true,&amp;quot;start&amp;quot;:88,&amp;quot;end&amp;quot;:600},&amp;quot;regular_list_item&amp;quot;,{&amp;quot;start&amp;quot;:492,&amp;quot;end&amp;quot;:600},&amp;quot;list&amp;quot;,{&amp;quot;spread&amp;quot;:false,&amp;quot;start&amp;quot;:511,&amp;quot;end&amp;quot;:600},&amp;quot;regular_list_item&amp;quot;,{&amp;quot;start&amp;quot;:533,&amp;quot;end&amp;quot;:600}]&quot;&gt;Фиксирование выполнения услуги&lt;/p&gt;" style="ellipse;whiteSpace=wrap;html=1;" parent="1" vertex="1">
          <mxGeometry x="220" y="720" width="130" height="50" as="geometry" />
        </mxCell>
        <mxCell id="bLb5BtMO9tZuomgXs2TO-48" value="&lt;p data-pm-slice=&quot;1 1 [&amp;quot;list&amp;quot;,{&amp;quot;spread&amp;quot;:true,&amp;quot;start&amp;quot;:88,&amp;quot;end&amp;quot;:600},&amp;quot;regular_list_item&amp;quot;,{&amp;quot;start&amp;quot;:492,&amp;quot;end&amp;quot;:600},&amp;quot;list&amp;quot;,{&amp;quot;spread&amp;quot;:false,&amp;quot;start&amp;quot;:511,&amp;quot;end&amp;quot;:600},&amp;quot;regular_list_item&amp;quot;,{&amp;quot;start&amp;quot;:533,&amp;quot;end&amp;quot;:600}]&quot;&gt;&amp;nbsp;обновление статуса клиента&lt;/p&gt;" style="ellipse;whiteSpace=wrap;html=1;" parent="1" vertex="1">
          <mxGeometry x="414" y="720" width="130" height="50" as="geometry" />
        </mxCell>
        <mxCell id="bLb5BtMO9tZuomgXs2TO-49" value="" style="endArrow=classicThin;html=1;rounded=0;endFill=1;dashed=1;" parent="1" source="bLb5BtMO9tZuomgXs2TO-48" target="bLb5BtMO9tZuomgXs2TO-47" edge="1">
          <mxGeometry width="50" height="50" relative="1" as="geometry">
            <mxPoint x="430" y="670" as="sourcePoint" />
            <mxPoint x="360" y="670" as="targetPoint" />
          </mxGeometry>
        </mxCell>
        <mxCell id="bLb5BtMO9tZuomgXs2TO-50" value="include" style="edgeLabel;html=1;align=center;verticalAlign=middle;resizable=0;points=[];" parent="bLb5BtMO9tZuomgXs2TO-49" vertex="1" connectable="0">
          <mxGeometry x="-0.0065" y="-1" relative="1" as="geometry">
            <mxPoint x="5" y="16" as="offset" />
          </mxGeometry>
        </mxCell>
        <mxCell id="bLb5BtMO9tZuomgXs2TO-52" value="" style="endArrow=classicThin;html=1;rounded=0;endFill=1;" parent="1" source="bLb5BtMO9tZuomgXs2TO-3" target="bLb5BtMO9tZuomgXs2TO-47" edge="1">
          <mxGeometry width="50" height="50" relative="1" as="geometry">
            <mxPoint x="180" y="591" as="sourcePoint" />
            <mxPoint x="274" y="658" as="targetPoint" />
          </mxGeometry>
        </mxCell>
      </root>
    </mxGraphModel>
  </diagram>
</mxfile>
